<svg width="49" height="48" viewBox="0 0 49 48" fill="none" xmlns="http://www.w3.org/2000/svg">
<path d="M24.4598 25.454L17.2758 32.638C17.0625 32.8513 16.8265 32.9513 16.5678 32.938C16.3091 32.9247 16.0731 32.812 15.8598 32.6C15.6465 32.388 15.5398 32.1453 15.5398 31.872C15.5398 31.6013 15.6465 31.3593 15.8598 31.146L23.0058 24L15.8218 16.866C15.6085 16.6527 15.5085 16.41 15.5218 16.138C15.5351 15.866 15.6478 15.624 15.8598 15.412C16.0718 15.2 16.3145 15.0933 16.5878 15.092C16.8585 15.092 17.1005 15.1987 17.3138 15.412L24.4598 22.596L31.5938 15.412C31.8071 15.1987 32.0431 15.092 32.3018 15.092C32.5605 15.092 32.7965 15.1987 33.0098 15.412C33.2311 15.632 33.3418 15.876 33.3418 16.144C33.3418 16.412 33.2311 16.652 33.0098 16.864L25.8638 24L33.0478 31.184C33.2611 31.3973 33.3678 31.6333 33.3678 31.892C33.3678 32.1507 33.2611 32.3867 33.0478 32.6C32.8278 32.8213 32.5838 32.932 32.3158 32.932C32.0478 32.932 31.8078 32.8213 31.5958 32.6L24.4598 25.454Z" fill="black"/>
</svg>
